# File created by Blade
# Date/Time:  Fri Jan 16 17:18:57 2015
#---------------------------------------------------------
:version 1.10
:name HOM
:units
  mass 1.0
  length 1.000000
  angle deg
:documentation
     Acclaim Skeleton File
:root
   axis xyz
   order TX TY TZ RX RY RZ
   position 0.000000 0.000000 0.000000
   orientation 0 0 0
:bonedata
   begin
      id 1
      name Spine_dum
      direction 0.000000 1.000000 0.000000
      length 7.170412
      axis 0.0 0.0 0.0 xyz
   end
   begin
      id 2
      name LeftUpLeg_dum
      direction 1.000000 0.000000 0.000000
      length 4.318350
      axis 0.0 0.0 0.0 xyz
   end
   begin
      id 3
      name RightUpLeg_dum
      direction -1.000000 0.000000 0.000000
      length 4.318350
      axis 0.0 0.0 0.0 xyz
   end
   begin
      id 4
      name Spine
      direction 0.000000 1.000000 0.000000
      length 0.000000
      axis 0.0 0.0 0.0 xyz
      dof rx ry rz
   end
   begin
      id 5
      name Spine_dum1
      direction 0.000000 1.000000 0.000000
      length 14.276153
      axis 0.0 0.0 0.0 xyz
   end
   begin
      id 6
      name Spine_dum2
      direction 0.000000 1.000000 0.000000
      length 10.718243
      axis 0.0 0.0 0.0 xyz
   end
   begin
      id 7
      name Spine_dum3
      direction 0.000000 1.000000 0.000000
      length 10.718243
      axis 0.0 0.0 0.0 xyz
   end
   begin
      id 8
      name Head
      direction 0.000000 1.000000 0.000000
      length 4.527550
      axis 0.0 0.0 0.0 xyz
      dof rx ry rz
   end
   begin
      id 9
      name LeftShoulder
      direction 1.000000 0.000000 0.000000
      length 7.058872
      axis 0.0 0.0 -90.0 xyz
      dof rx ry rz
   end
   begin
      id 10
      name LeftArm
      direction 1.000000 0.000000 0.000000
      length 10.955525
      axis 0.0 0.0 -90.0 xyz
      dof rx ry rz
   end
   begin
      id 11
      name LeftForeArm
      direction 1.000000 0.000000 0.000000
      length 8.193716
      axis 0.0 0.0 -90.0 xyz
      dof ry rz rx
   end
   begin
      id 12
      name LeftHand
      direction 0.000000 0.000000 0.000000
      length 0.000000
      axis 0.0 0.0 -90.0 xyz
      dof rx ry rz
   end
   begin
      id 13
      name LeftHand_dum1
      direction 0.000000 0.000000 0.000000
      length 0.000000
      axis 0.0 0.0 -90.0 xyz
   end
   begin
      id 14
      name LeftHand_dum2
      direction 1.000000 0.000000 0.000000
      length 3.937000
      axis 0.0 0.0 -90.0 xyz
   end
   begin
      id 15
      name LeftHandThumb1
      direction 0.000000 0.000000 1.000000
      length 3.937000
      axis 0.0 0.0 -90.0 xyz
      dof rx rz ry
   end
   begin
      id 16
      name RightShoulder
      direction -1.000000 0.000000 0.000000
      length 7.058872
      axis 0.0 0.0 90.0 xyz
      dof rx ry rz
   end
   begin
      id 17
      name RightArm
      direction -1.000000 0.000000 0.000000
      length 10.955525
      axis 0.0 0.0 90.0 xyz
      dof rx ry rz
   end
   begin
      id 18
      name RightForeArm
      direction -1.000000 0.000000 0.000000
      length 8.193716
      axis 0.0 0.0 90.0 xyz
      dof ry rz rx
   end
   begin
      id 19
      name RightHand
      direction 0.000000 0.000000 0.000000
      length 0.000000
      axis 0.0 0.0 90.0 xyz
      dof rx ry rz
   end
   begin
      id 20
      name RightHand_dum1
      direction 0.000000 0.000000 0.000000
      length 0.000000
      axis 0.0 0.0 90.0 xyz
   end
   begin
      id 21
      name RightHand_dum2
      direction -1.000000 0.000000 0.000000
      length 3.937000
      axis 0.0 0.0 90.0 xyz
   end
   begin
      id 22
      name RightHandThumb1
      direction 0.000000 0.000000 1.000000
      length 3.937000
      axis 0.0 0.0 90.0 xyz
      dof rx rz ry
   end
   begin
      id 23
      name LeftUpLeg
      direction 0.000000 -1.000000 0.000000
      length 17.323638
      axis 0.0 0.0 0.0 xyz
      dof rx ry rz
   end
   begin
      id 24
      name LeftLeg
      direction 0.000000 -1.000000 0.000000
      length 16.270368
      axis 0.0 0.0 0.0 xyz
      dof rx ry rz
   end
   begin
      id 25
      name LeftFoot
      direction 0.000000 -0.258819 0.965926
      length 4.922846
      axis 15.0 0.0 0.0 xyz
      dof rx ry rz
   end
   begin
      id 26
      name LeftToeBase
      direction 0.000000 0.000000 1.000000
      length 2.952750
      axis 0.0 0.0 0.0 xyz
      dof rx ry rz
   end
   begin
      id 27
      name RightUpLeg
      direction 0.000000 -1.000000 0.000000
      length 17.323638
      axis 0.0 0.0 0.0 xyz
      dof rx ry rz
   end
   begin
      id 28
      name RightLeg
      direction 0.000000 -1.000000 0.000000
      length 16.270368
      axis 0.0 0.0 0.0 xyz
      dof rx ry rz
   end
   begin
      id 29
      name RightFoot
      direction 0.000000 -0.258819 0.965926
      length 4.922846
      axis 15.0 0.0 0.0 xyz
      dof rx ry rz
   end
   begin
      id 30
      name RightToeBase
      direction 0.000000 0.000000 1.000000
      length 2.952750
      axis 0.0 0.0 0.0 xyz
      dof rx ry rz
   end
:hierarchy
   begin
      root Spine_dum LeftUpLeg_dum RightUpLeg_dum
      Spine_dum Spine
      LeftUpLeg_dum LeftUpLeg
      RightUpLeg_dum RightUpLeg
      Spine Spine_dum1 Spine_dum2 Spine_dum3
      Spine_dum1 Head
      Spine_dum2 LeftShoulder
      Spine_dum3 RightShoulder
      LeftShoulder LeftArm
      LeftArm LeftForeArm
      LeftForeArm LeftHand
      LeftHand LeftHand_dum1 LeftHand_dum2
      LeftHand_dum1 LeftHandThumb1
      RightShoulder RightArm
      RightArm RightForeArm
      RightForeArm RightHand
      RightHand RightHand_dum1 RightHand_dum2
      RightHand_dum1 RightHandThumb1
      LeftUpLeg LeftLeg
      LeftLeg LeftFoot
      LeftFoot LeftToeBase
      RightUpLeg RightLeg
      RightLeg RightFoot
      RightFoot RightToeBase
   end

# File created by Blade
# Date/Time:  Fri Jan 16 17:19:08 2015
# Frame Rate: 120.000 fps
#------------------------------------------------------
:FULLY-SPECIFIED
:DEGREES
1497
root -5.405670 35.194476 -9.441887 -0.873558 -5.475842 -6.093094
Spine -1.348989 1.437321 10.696944
Head 5.383093 -2.831121 -10.792377
LeftShoulder -19.505717 13.114676 -16.755055
LeftArm 21.301559 -6.138352 -72.765572
LeftForeArm 14.006570 -0.000000 9.596535
LeftHand 0.441288 -0.000000 -6.313560
LeftHandThumb1 -26.253704 0.000000 33.147579
RightShoulder -2.084435 13.638850 -6.281008
RightArm -31.590437 68.733378 14.698679
RightForeArm 47.344101 0.000000 73.116737
RightHand 20.965772 -0.000000 13.705203
RightHandThumb1 -24.326973 -0.000000 -32.862282
LeftUpLeg 11.918698 14.166623 7.238275
LeftLeg -9.299795 -0.000000 0.000000
LeftFoot -16.282628 28.082886 -8.509733
LeftToeBase 22.680828 -0.000000 -0.000000
RightUpLeg 8.717452 -4.067094 4.362698
RightLeg -5.425300 -0.000000 0.000000
RightFoot -4.394301 -28.402166 3.716953
RightToeBase 13.636936 -0.000000 -0.000000
1498
root -5.407337 35.193809 -9.437672 -0.870634 -5.399379 -6.080342
Spine -1.355846 1.368562 10.673532
Head 5.382372 -2.817601 -10.761210
LeftShoulder -19.539407 13.102243 -16.776429
LeftArm 21.277279 -6.189582 -72.744435
LeftForeArm 13.997390 -0.000000 9.549761
LeftHand 0.409107 0.000000 -6.351361
LeftHandThumb1 -26.253704 0.000000 33.147579
RightShoulder -2.194196 13.716881 -6.378801
RightArm -32.656178 68.922134 13.693856
RightForeArm 48.003372 -0.000000 72.670804
RightHand 21.077777 -0.000000 13.552010
RightHandThumb1 -24.326973 -0.000000 -32.862282
LeftUpLeg 11.896851 14.101195 7.226519
LeftLeg -9.289730 -0.000000 0.000000
LeftFoot -16.287061 28.064266 -8.511950
LeftToeBase 22.691480 -0.000000 -0.000000
RightUpLeg 8.721960 -4.129374 4.354253
RightLeg -5.420057 -0.000000 0.000000
RightFoot -4.416371 -28.432245 3.711777
RightToeBase 13.625078 -0.000000 -0.000000
1499
root -5.408955 35.193457 -9.433012 -0.872782 -5.321979 -6.073298
Spine -1.357350 1.295355 10.660013
Head 5.383133 -2.794999 -10.741586
LeftShoulder -19.572397 13.090054 -16.797579
LeftArm 21.251840 -6.253674 -72.732218
LeftForeArm 14.026380 0.000000 9.499517
LeftHand 0.432507 -0.000000 -6.314570
LeftHandThumb1 -26.253704 0.000000 33.147579
RightShoulder -2.319792 13.800291 -6.470360
RightArm -33.529618 69.044965 12.894214
RightForeArm 48.696128 -0.000000 72.277027
RightHand 21.292833 -0.000000 13.543017
RightHandThumb1 -24.326973 -0.000000 -32.862282
LeftUpLeg 11.884654 14.041744 7.220947
LeftLeg -9.284152 -0.000000 0.000000
LeftFoot -16.297158 28.032168 -8.528033
LeftToeBase 22.718593 -0.000000 -0.000000
RightUpLeg 8.733696 -4.199857 4.348523
RightLeg -5.415832 -0.000000 0.000000
RightFoot -4.447525 -28.439604 3.724273
RightToeBase 13.634040 -0.000000 -0.000000
1500
root -5.411439 35.192670 -9.427569 -0.880904 -5.253441 -6.062415
Spine -1.355013 1.233186 10.636160
Head 5.389324 -2.795851 -10.712070
LeftShoulder -19.598404 13.090491 -16.809072
LeftArm 21.230810 -6.308590 -72.720054
LeftForeArm 13.998950 -0.000000 9.464961
LeftHand 0.452583 -0.000000 -6.185159
LeftHandThumb1 -26.253704 0.000000 33.147579
RightShoulder -2.440230 13.854732 -6.546736
RightArm -34.362979 69.207549 12.114804
RightForeArm 49.377518 -0.000000 71.925927
RightHand 21.347642 -0.000000 13.305268
RightHandThumb1 -24.326973 -0.000000 -32.862282
LeftUpLeg 11.879882 14.000709 7.217905
LeftLeg -9.274241 -0.000000 0.000000
LeftFoot -16.298411 27.998498 -8.531285
LeftToeBase 22.699224 -0.000000 -0.000000
RightUpLeg 8.755395 -4.239316 4.344425
RightLeg -5.417931 -0.000000 0.000000
RightFoot -4.470320 -28.479268 3.715657
RightToeBase 13.681780 -0.000000 -0.000000
1501
root -5.413009 35.192241 -9.422830 -0.883804 -5.191665 -6.060914
Spine -1.354278 1.166966 10.636298
Head 5.394084 -2.794157 -10.710376
LeftShoulder -19.627812 13.077207 -16.829935
LeftArm 21.194180 -6.359847 -72.708480
LeftForeArm 13.976723 -0.000000 9.441900
LeftHand 0.473987 -0.000000 -6.156719
LeftHandThumb1 -26.253704 0.000000 33.147579
RightShoulder -2.547849 13.915244 -6.629103
RightArm -35.178061 69.345969 11.372855
RightForeArm 49.904837 -0.000000 71.617221
RightHand 21.429494 -0.000000 13.186227
RightHandThumb1 -24.326973 -0.000000 -32.862282
LeftUpLeg 11.872606 13.965930 7.219515
LeftLeg -9.269539 -0.000000 0.000000
LeftFoot -16.294316 27.978491 -8.511962
LeftToeBase 22.733282 -0.000000 -0.000000
RightUpLeg 8.770663 -4.273304 4.344426
RightLeg -5.416471 -0.000000 0.000000
RightFoot -4.502298 -28.497529 3.754439
RightToeBase 13.638787 -0.000000 -0.000000
